<svg id="Part_2" data-name="Part 2" xmlns="http://www.w3.org/2000/svg" width="62.635" height="161.312" viewBox="0 0 62.635 161.312">
  <path id="Path_249185" data-name="Path 249185" d="M246.79,60.1a7.766,7.766,0,0,1,7.72,7.734v82.839c0,21.334-6.476,38.924-19.3,52.024a62.546,62.546,0,0,1-34.37,18.465,2.684,2.684,0,0,1-1.494.25,7.15,7.15,0,0,1-4.732-1.747,7.054,7.054,0,0,1-2.738-5.987V197.084a7.78,7.78,0,0,1,5.6-7.36,31.989,31.989,0,0,0,13.7-7.486c7.97-7.112,11.581-17.466,11.581-31.19V67.834a7.766,7.766,0,0,1,7.72-7.734Z" transform="translate(-191.875 -60.1)" fill="#00a7e1"/>
</svg>
