<svg xmlns="http://www.w3.org/2000/svg" xmlns:xlink="http://www.w3.org/1999/xlink" width="640.974" height="7.572" viewBox="0 0 640.974 7.572">
  <defs>
    <clipPath id="clip-path">
      <rect id="Rectangle_4118" data-name="Rectangle 4118" width="640.974" height="7.572" fill="#00a7e1"/>
    </clipPath>
  </defs>
  <g id="Group_2774" data-name="Group 2774" transform="translate(0 0)">
    <g id="Group_2773" data-name="Group 2773" transform="translate(0 0)" clip-path="url(#clip-path)">
      <path id="Path_307976" data-name="Path 307976" d="M423.824,6.691a6.844,6.844,0,0,0,2.476-.084c.931-.162,1.812-.352,3.006-.588,1.106.832,3.386.776,5.6.774.874,0,1.749-.006,2.623,0a24.3,24.3,0,0,0,6.405-.623,3.952,3.952,0,0,1,.626-.021,3.046,3.046,0,0,1,.514.116,6.057,6.057,0,0,0,2.69.493,9.145,9.145,0,0,0,2.9-.4c.543-.168,1.1-.332,1.62-.5.5-.166.18-.492,1.119-.577a3.543,3.543,0,0,1,.6.06,10.152,10.152,0,0,1,1.017.514,11.225,11.225,0,0,0,5.363.907,27.567,27.567,0,0,1,5.069.04,9.116,9.116,0,0,0,1.3,0c3.463-.187,6.958-.205,10.455-.187a11.474,11.474,0,0,0,4.1-.493A5.358,5.358,0,0,1,482.157,6a5.675,5.675,0,0,1,.649.255,8.921,8.921,0,0,0,4.486.59c.862-.037,1.712-.112,2.548-.191a18.723,18.723,0,0,1,2.884-.066,76.224,76.224,0,0,0,7.825-.095c.234.049.491.112.774.16,2.8.477,4.777.293,6.142-.572a2.646,2.646,0,0,1,.4-.278,6.956,6.956,0,0,1,.736-.217l2.493.177c.082.078.177.14.209.2.283.58.455.653,2.1.715.973.037,1.963.051,2.944.044,3.069-.021,6.115.035,9.14.2.75.042,1.52.072,2.28.07,2.295-.006,4.7.1,6.852-.082,2.4-.205,4.744-.126,7.108-.183.214-.005.42-.043.635-.049.75-.022,1.514-.072,2.252-.048,3.248.1,6.5.148,9.765.163,2.172.01,4.373-.079,6.508.132a4.337,4.337,0,0,0,.651,0c1.858-.116,3.686,0,5.536.034,2.332.04,4.585-.11,5.807-.869a5.147,5.147,0,0,1,.859-.268c1.782.869,2.291.964,5.324,1.008,1.2.017,2.406.052,3.6.036a46.351,46.351,0,0,0,7.035-.362,26.808,26.808,0,0,0,6.018.417q3.764-.054,7.532-.083c.871-.008,1.762-.025,2.612.021a103.649,103.649,0,0,0,10.442-.041c1.185-.055,2.418-.138,3.58-.091,3.074.124,6.1-.106,9.153-.072a11.52,11.52,0,0,0,2.768-.225,18.553,18.553,0,0,1,4.635-.679c.946-.045,1.671-.228,1.826-.517A5.994,5.994,0,0,1,640.4,3.537c.888-.533.77-.966-.5-1.4-.367-.124-.6-.289-1-.4a5.494,5.494,0,0,0-1.363-.259c-2.381-.046-4.77-.055-7.156-.071a3.63,3.63,0,0,0-.618.063,10.179,10.179,0,0,1-2.515.029,29.252,29.252,0,0,0-6.111.043,22.794,22.794,0,0,1-3.551.072c-2.28-.053-4.574-.073-6.861-.067s-4.58.081-6.871.088A24.23,24.23,0,0,1,600.64,1.5a19.237,19.237,0,0,0-4.756.083,3.867,3.867,0,0,0-2.424.747c-.187.216-.191.486-1.118.565-.826-.1-.577-.331-.67-.521a6.522,6.522,0,0,0-.36-.577,85.643,85.643,0,0,0-13.888.569l-1.992-.549a15.843,15.843,0,0,1-4.172.214,16.475,16.475,0,0,0-2.164.126l-1.251-.373a6.657,6.657,0,0,0-.813,0,13.83,13.83,0,0,1-4.67.017,22.074,22.074,0,0,0-2.531-.192c-2.615-.057-5.24-.121-7.857-.11-3.162.013-6.313.167-9.489.075a5.625,5.625,0,0,0-2.289.316c-.248.106-.551.2-.829.3-1.732-.462-1.732-.462-5.39-.674-.532.128-1.091.295-1.748.407a5.9,5.9,0,0,1-1.519.091c-2.18-.383-3.189,0-4.021.542a2.574,2.574,0,0,1-.4.065,21.48,21.48,0,0,1-2.864-.39c-.951-.162-1.943-.316-2.975-.413a7.229,7.229,0,0,0-3.952.417,4.853,4.853,0,0,1-.84.17l-1.964-.545-5.3.555c-.592-.161-1.126-.281-1.557-.429a8.988,8.988,0,0,0-4.163-.258,20.545,20.545,0,0,1-3.511.173,14.028,14.028,0,0,0-1.947.031,18.729,18.729,0,0,1-6.179-.345,12.39,12.39,0,0,0-2.412-.276c-2.486.023-4.933.105-7.46.034-1.879-.053-3.848.2-5.775.318a2.741,2.741,0,0,0-1.623.453,3.8,3.8,0,0,1-.612.58,5.753,5.753,0,0,1-.992.276,6.732,6.732,0,0,0-1.131-.678c-.46-.182-1.161-.3-1.689-.471a8.68,8.68,0,0,0-2.995-.311c-1.588.083-3.24.109-4.64.309-.541.388-.973.736-1.522,1.066a2.637,2.637,0,0,1-1,.2c-.648,0-.882-.187-.917-.36-.06-.305,0-.612-.049-.917-.027-.169-.152-.342-1.013-.334l-2.245.831-2.661.981c-.269-.281-.473-.466-.621-.655s-.217-.4-.392-.6a3.95,3.95,0,0,0-2.671-.606c-.538.009-1.068.063-1.6.1-1.284.08-2.573.152-3.852.241a12.672,12.672,0,0,1-3.152-.081,16.88,16.88,0,0,0-2.531-.179c-2.091-.024-3.919.133-4.73.838a3,3,0,0,1-.666.173C430.22,1.7,430.226,1.7,427.9,2.3a7.68,7.68,0,0,1-.885.1l-1.662-.74c-1.007,0-1.889.028-2.735-.014a8.28,8.28,0,0,0-2.708.25c-.4.113-.85.213-1.307.3a6.485,6.485,0,0,1-.7.042l-1.536-.3L414.6,2.15a2.536,2.536,0,0,1-.4-.066,5.787,5.787,0,0,0-3.768-.47,21.571,21.571,0,0,1-4.817,0,12.161,12.161,0,0,0-2.883-.052,26.331,26.331,0,0,1-4.189.1c-1.307-.027-2.627-.074-3.925-.044a29.13,29.13,0,0,0-8.271,1.041,5.059,5.059,0,0,1-.714.056,2.959,2.959,0,0,0-.4-.577,2.07,2.07,0,0,0-1.574-.07c-.268.106-.449.236-.735.337a13.635,13.635,0,0,1-2.759.94c-.114-.209-.247-.332-.234-.455a6.429,6.429,0,0,0,.18-.708c0-.08-.282-.2-.512-.225a2.55,2.55,0,0,0-.834.1c-.474.176-.86.375-1.392.614a9.255,9.255,0,0,1-1.385-.3,9.069,9.069,0,0,0-3.944-.551,34.118,34.118,0,0,1-5.123-.185,5.927,5.927,0,0,0-3.593.425,3.3,3.3,0,0,1-.666.17,3.633,3.633,0,0,1-.377-.061,2.455,2.455,0,0,1-.392-.162,8.5,8.5,0,0,0-4.744-.541c-1.022.089-2.147.085-3.223.082-.755,0-1.511-.068-2.259-.118a10.225,10.225,0,0,0-3.9.329c-.5.17-1.219.281-1.838.418l-.011.006c.007-.135.1-.276,0-.4a2.134,2.134,0,0,0-1.739-.235,8.793,8.793,0,0,0-1.309.444c-.431.185-.767.391-1.233.633-.608-.118-1.083-.192-1.491-.292-.686-.169-1.316-.359-2-.53a6.467,6.467,0,0,0-2.732-.129,7.671,7.671,0,0,1-2.486.026,15.572,15.572,0,0,0-1.9-.069c-.867,0-1.757.071-2.6.029a12.645,12.645,0,0,0-3.208.281c-.29-.047-.409-.055-.48-.078a6.872,6.872,0,0,0-2.96-.259c-1.235.14-1.956.42-2.231.816a1.693,1.693,0,0,1-.363.495,1.71,1.71,0,0,1-.719.14,1.113,1.113,0,0,1-.621-.2,4.321,4.321,0,0,1-.23-.9c-2.283.236-2.465.281-3.2.1a34.1,34.1,0,0,0-6.818-.6c-1.086-.033-2.183-.05-3.254-.11a10.037,10.037,0,0,0-2.516.131,18.078,18.078,0,0,1-5.328.243,6.518,6.518,0,0,0-3.61.451,2.155,2.155,0,0,1-1.362.229,4.262,4.262,0,0,1-.452-.245,1.315,1.315,0,0,0-1.115-.28,1.417,1.417,0,0,0-.744.3c-.242.225-.308.468-.539.694a2.692,2.692,0,0,1-.677.341,1.849,1.849,0,0,1-1.1-.071,1.335,1.335,0,0,1-.192-.7c.037-.321-.141-.612-.852-.851a7.874,7.874,0,0,0-.806-.166l-2.544.373c-.44-.072-.742-.112-1.01-.168a8.385,8.385,0,0,0-4.905.027c-.769.19-1.535.383-2.356.549a5.972,5.972,0,0,1-2.18.014c-1.143-.2-2.262-.419-3.453-.587a12.377,12.377,0,0,0-2.186-.137,19.387,19.387,0,0,1-3.5-.149,10.665,10.665,0,0,0-4.25.265c-.322.092-.616.194-.946.283a3.277,3.277,0,0,1-1.645.055,5.212,5.212,0,0,0-.332-.433c-.344-.377-.926-.5-2.119-.475a5.584,5.584,0,0,0-1.945.328A7.423,7.423,0,0,1,249.1,2.2c-.149-.147-.261-.264-.383-.379a2.653,2.653,0,0,0-2.411-.255c-.666.172-1.216.387-1.82.583l-.843.27c-1.114-.2-.223-.743-1.918-.823-.36.17-.745.367-1.183.553a2.675,2.675,0,0,1-1.469.193l-1.186-.787a22.624,22.624,0,0,1-4.242-.011,5.782,5.782,0,0,0-2.95.133,6.493,6.493,0,0,1-3.267.078,18.076,18.076,0,0,0-5.038-.23,16.116,16.116,0,0,1-4.123-.091,5.068,5.068,0,0,0-2.154.067,10.094,10.094,0,0,1-3.678.21,10.151,10.151,0,0,0-3.841.2c-1.1-.11-2.016-.27-2.951-.281a42.482,42.482,0,0,0-5.2.091,11.024,11.024,0,0,1-3.176-.038,19.581,19.581,0,0,0-4.12-.208c-.947.03-1.942-.04-2.9-.093a9.159,9.159,0,0,0-3.042.239c-.386.112-.858.195-1.3.293L183.278,1.6c-1.966.171-2,.836-3.458,1.128-.264-.118-.572-.193-.583-.272-.027-.2.122-.4.119-.606s-.793-.38-1.4-.312a5.441,5.441,0,0,0-.847.146,6.331,6.331,0,0,1-2.45.1c-.516-.055-1.015-.125-1.521-.189a5.85,5.85,0,0,0-2.155.1c-.335.083-.663.169-1.119.285-1.008-.118-2.072-.2-3.015-.362a12.184,12.184,0,0,0-3.743-.151,11.711,11.711,0,0,1-2.872-.055c-.514-.057-1-.139-1.529-.184a14.745,14.745,0,0,0-6.475.581c-.818.318-1.7.621-2.6.916a2.941,2.941,0,0,1-.893.039c-.246-.032-.524-.145-.537-.227a5.907,5.907,0,0,1,0-1.047c-.643,0-1.278-.022-1.9,0a48.743,48.743,0,0,1-8.674-.314,22.822,22.822,0,0,0-2.864-.134c-1.088-.008-2.2.009-3.267.073A22.726,22.726,0,0,1,127.012,1a13.564,13.564,0,0,0-3.8.072c-1.082.158-2.238.267-3.314.392a14.254,14.254,0,0,0-3.063-.264c-1.772-.042-3.455.057-5.154.177-.722.051-1.6,0-2.182.107-.926.176-.22.5-.32.756-.02.052-.257.1-.4.143-1.66.009-3-.118-3.531-.692a3.288,3.288,0,0,0-2.09-.362,7.84,7.84,0,0,0-3.037.514,4.618,4.618,0,0,1-.682.013l-.762-.653c-.73-.1-1.4-.221-2.131-.277a9.181,9.181,0,0,0-1.876,0,19.921,19.921,0,0,1-3.808.167,25.007,25.007,0,0,0-2.853.156,21.119,21.119,0,0,1-3.542.05c-2.837-.208-2.842-.193-4.069.644a4.024,4.024,0,0,1-.671.071L78.34,1.358a22.326,22.326,0,0,1-4.278-.08,5.158,5.158,0,0,0-.7.043l-1.975.643c-1.7-.643-4.127-.608-6.343-.737C62.8,1.094,60.494,1.051,58.206,1a11.362,11.362,0,0,0-1.876.137,8.972,8.972,0,0,1-2.825.033A21.978,21.978,0,0,0,49.356.976c-.863.026-1.746,0-2.617-.013-2.081-.034-2.08-.037-3.293.567-.946-.144-1.856-.321-2.847-.423C39.475.992,38.287.892,37.115.877A14.979,14.979,0,0,1,32.862.549,8.368,8.368,0,0,0,31.285.5c-2.176,0-4.354.02-6.527,0A12,12,0,0,1,22.979.282C22.522.208,22.131.1,21.711,0a8.973,8.973,0,0,1-4.688.8c-.651,0-1.3-.045-1.954-.056a14.232,14.232,0,0,0-3.445.209,12.408,12.408,0,0,1-2.1.27c-.79.038-1.626-.017-2.489-.033l-.392.766c-.841-.108-1.5-.216-2.2-.278a4.082,4.082,0,0,0-2.2.315,1.868,1.868,0,0,0-.494.483C1.285,3.1.848,3.737.4,4.368a3.579,3.579,0,0,0-.344.5c-.238.518.22.96,1.749,1.217A10.537,10.537,0,0,1,3.951,6.7a16.722,16.722,0,0,0,1.741.456,25.918,25.918,0,0,0,6.584.354c3.809-.119,7.611-.222,11.448-.219a21.747,21.747,0,0,1,3.924.284,6.364,6.364,0,0,1,2.869-.34c2.854.117,5.657-.092,8.478-.174.976-.029,1.978-.069,2.895-.169.9-.1,1.7-.28,2.467-.411a5.848,5.848,0,0,0,2.121.085,5.882,5.882,0,0,1,.573-.609,4.435,4.435,0,0,1,.71-.349l2,.426-.551.651c.752.049,1.359.119,1.971.123,1.858.016,3.731-.035,5.574.02a21.529,21.529,0,0,0,4.867-.3c.282.016.4.015.492.03.191.032.376.069.548.11a12.091,12.091,0,0,0,4.9.108,7.414,7.414,0,0,1,1.514-.154,18.036,18.036,0,0,0,3.4-.313,11.019,11.019,0,0,0,3.3.424c1.27.009,2.049-.157,2.39-.552a6.731,6.731,0,0,0,.334-.6,2.225,2.225,0,0,1,.557-.581A1.8,1.8,0,0,1,80.3,4.754c1.208.482.421,1.138,1.489,1.671a23.421,23.421,0,0,1,2.519.105,38.274,38.274,0,0,0,5.762.286c.978.008,1.969.043,2.923.111A34.215,34.215,0,0,0,97.209,6.9c1.574-.08,2.665-.26,3.054-.77.123-.162.373-.33,1.115-.3a16.35,16.35,0,0,0,1.707.728,11.174,11.174,0,0,0,2.827.085c.431.01.85.07,1.281.08a10.148,10.148,0,0,0,1.6-.016,17.828,17.828,0,0,1,3.8-.18,2.529,2.529,0,0,0,1.716-.377c.322-.236-.036-.562,1.039-.731a5.352,5.352,0,0,1,1.763.828,4.3,4.3,0,0,0,1.779.413,44.1,44.1,0,0,0,9.622-.131,4.619,4.619,0,0,1,1.56.014c.438.075.943.111,1.418.165.621-.227,1.078-.42,1.62-.585A3.982,3.982,0,0,1,135,5.7l.5.743a10.767,10.767,0,0,0,3.612-.409c.426.137.909.271,1.306.426a6.9,6.9,0,0,0,2.57.36c3.7-.035,7.411-.005,11.114,0,3.025.008,6.083-.125,9.137-.131,1.522,0,3.045.017,4.568.018,1.3,0,2.611.009,3.909-.02,1.846-.041,3.041-.335,3.382-.926a3,3,0,0,1,.6-.121c.38.244.722.491,1.147.723a1.9,1.9,0,0,0,.742.159,2.993,2.993,0,0,0,.995-.209c.436-.272.718-.568,1.1-.848a1.191,1.191,0,0,1,.5-.106,2.8,2.8,0,0,1,.808.115c.416.238.677.5,1.107.737a9.623,9.623,0,0,0,1.253.4A5.041,5.041,0,0,1,184.2,6.1a4.357,4.357,0,0,1,1.2-.305,7.725,7.725,0,0,1,1.836.015c.674.151.088.36-.222.536-.09.051-.053.124-.086.22a15.866,15.866,0,0,0,3.717-.236c1.331-.168,1.035-.649,1.972-.966a4.68,4.68,0,0,1,.92.281,2.861,2.861,0,0,1,.475.592c.5.594.984.7,3.032.672a16.6,16.6,0,0,0,5.267-.666c.9.113.052.582,1.527.629.427-.132.906-.315,1.5-.451.572-.133,1.259-.218,1.831-.313l-.092-.566a2.638,2.638,0,0,1,1.884.568,4,4,0,0,0,2.029.44,30.073,30.073,0,0,0,6.673-.215,3.183,3.183,0,0,1,.318.023c.279.051.547.109.818.164a4.225,4.225,0,0,0,2.8-.03,3.373,3.373,0,0,1,1.671-.2,1.385,1.385,0,0,0,.389.173,5.9,5.9,0,0,0,3.914.056,28.773,28.773,0,0,1,3.7-.7c.4.2.706.371,1.084.53a3.867,3.867,0,0,0,2.505.1,4.561,4.561,0,0,1,1.83-.47,14.835,14.835,0,0,0,2.435.694,30.177,30.177,0,0,0,3.844.207c1.665,0,3.3-.118,3.893-.728a4,4,0,0,1,.691-.11c.209.1.451.2.643.316,1.007.587,1.766.68,3.644.423.678-.093,1.326-.207,2.023-.317a26.644,26.644,0,0,0,7.249.524,28.492,28.492,0,0,1,6.333.3l2.529-.548a19.1,19.1,0,0,0,3.516.009,6.754,6.754,0,0,1,1.573.031,38.323,38.323,0,0,0,7.108.058,20.709,20.709,0,0,1,4.175-.018,7.765,7.765,0,0,0,1.854-.1,8.559,8.559,0,0,1,2.494-.086,9.607,9.607,0,0,0,1.607.046c2.5-.144,4.987.192,7.474-.006,2.056.164,4.115.062,6.184.028a9.773,9.773,0,0,0,2.938-.354,4.564,4.564,0,0,1,1.372-.235c1.407.027,2.474-.258,3.751-.332l.4-.439c.276.284-.287.314-.472.414a5.229,5.229,0,0,0-.537.588c-.19.29.243.484,1.1.508a14.237,14.237,0,0,0,5.6-.574,5.115,5.115,0,0,1,.751-.079l2.414.461,2.288-.585a3.564,3.564,0,0,1,.624.092,7.916,7.916,0,0,0,3.869.575c.977-.027,1.975,0,2.941-.041a10.4,10.4,0,0,0,2.078-.234,13.294,13.294,0,0,1,2.931-.33c.113-.082.19-.144.28-.2.174-.116.352-.328.534-.328a6.669,6.669,0,0,1,1.443.149,3.685,3.685,0,0,1,.943.409c.275.146.447.311.735.455a5.573,5.573,0,0,0,3.827.138c.368-.122.608-.281.945-.413.24-.094.545-.173.9-.283a2.869,2.869,0,0,1,.626.3c.387.5,1.531.63,2.97.607.758-.012,1.508-.068,2.265-.093.971-.032,1.946-.073,2.919-.073a22.1,22.1,0,0,0,7.016-.659l1.964.723c1.256,0,2.337.015,3.417,0,.752-.007,1.546,0,2.241-.079a16.293,16.293,0,0,1,2.888-.043c1.665.112,3.045.012,3.764-.536a1.489,1.489,0,0,1,.5-.261,11.327,11.327,0,0,1,3.839-.62,5.271,5.271,0,0,0,.9.9,2.831,2.831,0,0,0,1.283.427,14.4,14.4,0,0,0,4.645-.186c.375-.112.808-.206,1.008-.256a22.658,22.658,0,0,0,2.972.286,16.046,16.046,0,0,0,4.1-.575,8.772,8.772,0,0,1,1.017-.187c.283.144.551.223.6.314.311.577,1.437.765,3.236.777,3.706.025,7.412.078,11.107-.03a47.6,47.6,0,0,1,6.378-.171,1.158,1.158,0,0,0,.311-.025,9.957,9.957,0,0,1,4.239.088l.011-.005m-279-.822c.352-.159.757-.307,1.2-.483.485.5.049.7-1.541.75a1.373,1.373,0,0,1,.341-.267M6.832,3.849a1.722,1.722,0,0,1-.542,0c-.375-.161.183-.524.836-.544a2.284,2.284,0,0,1,.517.153c-.253.128-.5.269-.811.4M574.2,3.18a2.494,2.494,0,0,1-.5.084,6.275,6.275,0,0,1-.72-.164l.517-.2.7.276M166.032,5.807c-.009,0-.149-.026-.227-.04.087-.043.17-.087.271-.127.008,0,.147.026.226.041-.086.043-.168.087-.269.126m308.776-.4a2.348,2.348,0,0,1,.429.1c.036.019-.163.081-.255.123l-.456-.1.281-.127M589.435,5.35c-.037,0-.086-.069-.053-.078.118-.031.27-.05.409-.073l.115.156c-.161,0-.32,0-.471,0m-266.9-2.974a.969.969,0,0,1,.137-.072c.138.027.28.052.407.084a1.077,1.077,0,0,1-.138.072c-.139-.027-.28-.052-.407-.084m-54.359.074.431-.051c.013.03.068.068.029.089a1.432,1.432,0,0,1-.266.033l-.194-.07M170.114,5.208c-.1-.044-.287-.093-.265-.13s.224-.089.348-.132l.3.131-.379.131M295,5.673l.385-.077c.021.03.08.063.051.086a1.041,1.041,0,0,1-.227.05L295,5.673M97.966,5.591l.01-.078.215.041ZM12.066,5.5l.221.027-.182.047ZM317.3,4.3a.856.856,0,0,1,.2.041c.017.017-.064.043-.1.066l-.212-.04L317.3,4.3M581.814,5.6l-.116-.055.207,0Z" transform="translate(0 0)" fill="#00a7e1"/>
    </g>
  </g>
</svg>
